<svg xmlns="http://www.w3.org/2000/svg" viewBox="0 0 182 187"><defs><style>.cls-1{fill:#1e1f2b;}.cls-2{fill:#fff;stroke:#1e1f2b;stroke-miterlimit:10;}</style></defs><g id="Layer_2" data-name="Layer 2"><g id="Layer_1-2" data-name="Layer 1"><rect class="cls-1" width="182" height="187" rx="42.48"/><path class="cls-2" d="M91.51,134.51V12.29h53c7.47,2.72,13.24,7.47,13.24,20.37v26c0,11.72-4.76,16.81-11.37,19.69l14.59,39v17.15H137.17L121.55,87h-2.88v47.53ZM118.67,34.36V64.91h10.18l1.7-1.69V36.06l-1.7-1.7Z"/><path class="cls-2" d="M21.07,134.51V12.29H74C81.49,15,87.27,19.76,87.27,32.66V50.83c0,9.84-3.4,16.8-13.41,20.36,10,3.57,13.41,10.53,13.41,20.37v22.58c0,12.9-5.78,17.65-13.24,20.37ZM48.23,63.22H58.41l1.7-1.7V34.36l-1.7-1.7H48.23Zm11.88,49.22V85.28l-1.7-1.7H48.23v30.56H58.41Z"/><path class="cls-2" d="M22.29,138.93h7.82V166.8h8.07v7.34H22.29Z"/><path class="cls-2" d="M39.9,138.93H56v7.33H47.72v6.36h7.83V160H47.72v6.85h8.56v7.34H39.9Z"/><path class="cls-2" d="M69.87,167.29H66.16l-.59,6.85H58.23v-5.92l4.46-29.29H73.35l4.45,29.29v5.92H70.46ZM66.79,160h2.45l-1-11.1h-.49Z"/><path class="cls-2" d="M83.57,174.14c-2.15-.79-3.82-2.15-3.82-5.87V144.79c0-3.71,1.67-5.08,3.82-5.86H95c2.15.78,3.82,2.15,3.82,5.86v5.87H91v-4.89l-.49-.49H88.07l-.49.49v21.52l.49.49h2.44l.49-.49v-6.36h-2V153.6h9.78v14.67c0,3.72-1.67,5.08-3.82,5.87Z"/><path class="cls-2" d="M109.1,167.29l.49.49h2l.49-.49V138.93h7.83v29.34c0,3.72-1.67,5.08-3.82,5.87h-11c-2.15-.79-3.82-2.15-3.82-5.87V138.93h7.83Z"/><path class="cls-2" d="M122.3,138.93h16.14v7.33h-8.32v6.36H138V160h-7.83v6.85h8.56v7.34H122.3Z"/><path class="cls-2" d="M160,160.25v8c0,3.72-1.67,5.08-3.82,5.87H144.7c-2.15-.79-3.81-2.15-3.81-5.87v-7h7.82v6l.49.49h2.44l.49-.49v-5.38l-.44-.68-8.07-3.62c-2.39-1.08-2.73-2.74-2.73-5.38v-7.44c0-3.71,1.66-5.08,3.81-5.86h11.44c2.15.78,3.82,2.15,3.82,5.86v6.56h-7.83v-5.58l-.49-.49H149.2l-.49.49v5.14l.64.78,7.87,3.18C159.61,155.85,160,157.61,160,160.25Z"/></g></g></svg>
