<svg xmlns="http://www.w3.org/2000/svg" viewBox="0 0 184.59 34.58"><defs><style>.cls-1{fill:#fff;}</style></defs><g id="Layer_2" data-name="Layer 2"><g id="Layer_1-2" data-name="Layer 1"><path class="cls-1" d="M0,34.58V0H15c2.11.77,3.74,2.11,3.74,5.76V10.9c0,2.79-1,4.76-3.79,5.77,2.83,1,3.79,3,3.79,5.76v6.39c0,3.65-1.63,5-3.74,5.76ZM7.69,14.41h2.88l.48-.48V6.24l-.48-.48H7.69Zm3.36,13.93V20.66l-.48-.49H7.69v8.65h2.88Z"/><path class="cls-1" d="M21.13,34.58V0h15c2.11.77,3.75,2.11,3.75,5.76v7.35c0,3.32-1.35,4.76-3.22,5.58l4.13,11v4.85H34.06L29.64,21.14h-.82V34.58ZM28.82,6.24v8.65H31.7l.48-.48V6.72l-.48-.48Z"/><path class="cls-1" d="M49.38,0h7.68V27.38H65v7.2H49.38Z"/><path class="cls-1" d="M66.67,0H82.52V7.21H74.35v6.24H82v7.21H74.35v6.72h8.41v7.2H66.67Z"/><path class="cls-1" d="M96.11,27.86H92.46l-.57,6.72H84.68V28.77L89.05,0H99.52l4.38,28.77v5.81H96.69Zm-3-7.2h2.4l-1-10.91h-.48Z"/><path class="cls-1" d="M109.56,34.58c-2.11-.76-3.74-2.11-3.74-5.76V5.76c0-3.65,1.63-5,3.74-5.76H120.8c2.12.77,3.75,2.11,3.75,5.76v5.77h-7.69V6.72l-.48-.48H114l-.48.48V27.86l.48.48h2.4l.48-.48V21.62h-1.92V14.41h9.61V28.82c0,3.65-1.63,5-3.75,5.76Z"/><path class="cls-1" d="M134.64,27.86l.48.48H137l.48-.48V0h7.68V28.82c0,3.65-1.63,5-3.74,5.76H130.7c-2.12-.76-3.75-2.11-3.75-5.76V0h7.69Z"/><path class="cls-1" d="M147.6,0h15.86V7.21h-8.17v6.24H163v7.21h-7.69v6.72h8.41v7.2H147.6Z"/><path class="cls-1" d="M184.59,20.94v7.88c0,3.65-1.63,5-3.75,5.76H169.6c-2.11-.76-3.74-2.11-3.74-5.76V22h7.68v5.86l.48.48h2.4l.49-.48V22.58l-.44-.68-7.92-3.55c-2.36-1.06-2.69-2.69-2.69-5.28V5.76c0-3.65,1.63-5,3.74-5.76h11.24c2.12.77,3.75,2.11,3.75,5.76V12.2h-7.68V6.72l-.49-.48H174l-.48.48v5.05l.63.77,7.73,3.12C184.25,16.62,184.59,18.35,184.59,20.94Z"/></g></g></svg>